InstrumentSerif-Regular.ufo
<glyph name="exclam" format="2">
  <advance width="237"/>
  <unicode hex="0021"/>
  <guideline x="64" y="192" angle="90"/>
  <guideline x="169" y="192" angle="90"/>
  <outline>
    <contour>
      <point x="117" y="179" type="curve" smooth="yes"/>
      <point x="125" y="179"/>
      <point x="129" y="185"/>
      <point x="129" y="195" type="curve" smooth="yes"/>
      <point x="131" y="370"/>
      <point x="163" y="639"/>
      <point x="163" y="694" type="curve" smooth="yes"/>
      <point x="163" y="727"/>
      <point x="146" y="750"/>
      <point x="117" y="750" type="curve" smooth="yes"/>
      <point x="88" y="750"/>
      <point x="71" y="727"/>
      <point x="71" y="694" type="curve" smooth="yes"/>
      <point x="71" y="639"/>
      <point x="103" y="370"/>
      <point x="105" y="195" type="curve" smooth="yes"/>
      <point x="105" y="185"/>
      <point x="110" y="179"/>
    </contour>
    <component base="period" xOffset="10"/>
  </outline>
</glyph>
<glyph name="quotesingle" format="2">
  <advance width="233"/>
  <unicode hex="0027"/>
  <outline>
    <contour>
      <point x="116" y="489" type="curve" smooth="yes"/>
      <point x="124" y="489"/>
      <point x="128" y="495"/>
      <point x="128" y="506" type="curve" smooth="yes"/>
      <point x="131" y="598"/>
      <point x="161" y="643"/>
      <point x="161" y="681" type="curve" smooth="yes"/>
      <point x="161" y="709"/>
      <point x="146" y="731"/>
      <point x="116" y="731" type="curve" smooth="yes"/>
      <point x="87" y="731"/>
      <point x="72" y="709"/>
      <point x="72" y="681" type="curve" smooth="yes"/>
      <point x="72" y="643"/>
      <point x="101" y="598"/>
      <point x="104" y="506" type="curve" smooth="yes"/>
      <point x="104" y="495"/>
      <point x="109" y="489"/>
    </contour>
  </outline>
</glyph>
<glyph name="asterisk" format="2">
  <advance width="444"/>
  <unicode hex="002A"/>
  <outline>
    <contour>
      <point x="222" y="416" type="curve" smooth="yes"/>
      <point x="247" y="416"/>
      <point x="261" y="435"/>
      <point x="261" y="455" type="curve" smooth="yes"/>
      <point x="261" y="486"/>
      <point x="236" y="507"/>
      <point x="230" y="558" type="curve" smooth="yes"/>
      <point x="229" y="566"/>
      <point x="235" y="568"/>
      <point x="241" y="563" type="curve" smooth="yes"/>
      <point x="281" y="530"/>
      <point x="288" y="500"/>
      <point x="314" y="485" type="curve" smooth="yes"/>
      <point x="331" y="475"/>
      <point x="354" y="478"/>
      <point x="367" y="499" type="curve" smooth="yes"/>
      <point x="379" y="521"/>
      <point x="370" y="543"/>
      <point x="353" y="553" type="curve" smooth="yes"/>
      <point x="325" y="569"/>
      <point x="294" y="556"/>
      <point x="248" y="577" type="curve" smooth="yes"/>
      <point x="240" y="580"/>
      <point x="240" y="586"/>
      <point x="248" y="589" type="curve" smooth="yes"/>
      <point x="294" y="610"/>
      <point x="325" y="597"/>
      <point x="353" y="613" type="curve" smooth="yes"/>
      <point x="370" y="623"/>
      <point x="379" y="645"/>
      <point x="367" y="667" type="curve" smooth="yes"/>
      <point x="354" y="688"/>
      <point x="331" y="691"/>
      <point x="314" y="681" type="curve" smooth="yes"/>
      <point x="286" y="665"/>
      <point x="281" y="633"/>
      <point x="240" y="602" type="curve" smooth="yes"/>
      <point x="234" y="597"/>
      <point x="229" y="600"/>
      <point x="230" y="608" type="curve" smooth="yes"/>
      <point x="236" y="659"/>
      <point x="261" y="680"/>
      <point x="261" y="711" type="curve" smooth="yes"/>
      <point x="261" y="731"/>
      <point x="247" y="750"/>
      <point x="222" y="750" type="curve" smooth="yes"/>
      <point x="197" y="750"/>
      <point x="183" y="731"/>
      <point x="183" y="711" type="curve" smooth="yes"/>
      <point x="183" y="680"/>
      <point x="208" y="659"/>
      <point x="214" y="608" type="curve" smooth="yes"/>
      <point x="215" y="600"/>
      <point x="210" y="597"/>
      <point x="204" y="602" type="curve" smooth="yes"/>
      <point x="163" y="633"/>
      <point x="158" y="665"/>
      <point x="130" y="681" type="curve" smooth="yes"/>
      <point x="113" y="691"/>
      <point x="90" y="688"/>
      <point x="77" y="667" type="curve" smooth="yes"/>
      <point x="65" y="645"/>
      <point x="74" y="623"/>
      <point x="91" y="613" type="curve" smooth="yes"/>
      <point x="119" y="597"/>
      <point x="150" y="610"/>
      <point x="196" y="589" type="curve" smooth="yes"/>
      <point x="204" y="586"/>
      <point x="204" y="580"/>
      <point x="196" y="577" type="curve" smooth="yes"/>
      <point x="150" y="556"/>
      <point x="119" y="569"/>
      <point x="91" y="553" type="curve" smooth="yes"/>
      <point x="74" y="543"/>
      <point x="65" y="521"/>
      <point x="77" y="499" type="curve" smooth="yes"/>
      <point x="90" y="478"/>
      <point x="113" y="475"/>
      <point x="130" y="485" type="curve" smooth="yes"/>
      <point x="156" y="500"/>
      <point x="163" y="530"/>
      <point x="203" y="563" type="curve" smooth="yes"/>
      <point x="209" y="568"/>
      <point x="215" y="566"/>
      <point x="214" y="558" type="curve" smooth="yes"/>
      <point x="208" y="507"/>
      <point x="183" y="486"/>
      <point x="183" y="455" type="curve" smooth="yes"/>
      <point x="183" y="435"/>
      <point x="197" y="416"/>
    </contour>
  </outline>
</glyph>
<glyph name="hyphen" format="2">
  <advance width="430"/>
  <unicode hex="002D"/>
  <outline>
    <contour>
      <point x="92" y="259" type="curve" smooth="yes"/>
      <point x="338" y="259" type="line" smooth="yes"/>
      <point x="344" y="259"/>
      <point x="348" y="263"/>
      <point x="348" y="269" type="curve" smooth="yes"/>
      <point x="348" y="283" type="line" smooth="yes"/>
      <point x="348" y="289"/>
      <point x="344" y="293"/>
      <point x="338" y="293" type="curve" smooth="yes"/>
      <point x="92" y="293" type="line" smooth="yes"/>
      <point x="86" y="293"/>
      <point x="82" y="289"/>
      <point x="82" y="283" type="curve" smooth="yes"/>
      <point x="82" y="269" type="line" smooth="yes"/>
      <point x="82" y="263"/>
      <point x="86" y="259"/>
    </contour>
  </outline>
</glyph>
<glyph name="A" format="2">
  <advance width="457"/>
  <unicode hex="0041"/>
  <anchor x="229" y="0" name="bottom"/>
  <anchor x="421" y="0" name="ogonek"/>
  <anchor x="229" y="720" name="top"/>
  <outline>
    <contour>
      <point x="-3" y="0" type="curve" smooth="yes"/>
      <point x="137" y="0" type="line" smooth="yes"/>
      <point x="146" y="0"/>
      <point x="151" y="4"/>
      <point x="151" y="11" type="curve" smooth="yes"/>
      <point x="151" y="17"/>
      <point x="146" y="21"/>
      <point x="134" y="23" type="curve" smooth="yes"/>
      <point x="119" y="25" type="line" smooth="yes"/>
      <point x="88" y="29"/>
      <point x="79" y="50"/>
      <point x="89" y="88" type="curve" smooth="yes"/>
      <point x="123" y="222" type="line" smooth="yes"/>
      <point x="128" y="240"/>
      <point x="138" y="248"/>
      <point x="156" y="248" type="curve" smooth="yes"/>
      <point x="261" y="248" type="line" smooth="yes"/>
      <point x="279" y="248"/>
      <point x="290" y="239"/>
      <point x="294" y="222" type="curve" smooth="yes"/>
      <point x="332" y="67" type="line" smooth="yes"/>
      <point x="339" y="38"/>
      <point x="334" y="27"/>
      <point x="311" y="25" type="curve" smooth="yes"/>
      <point x="292" y="23" type="line" smooth="yes"/>
      <point x="280" y="22"/>
      <point x="275" y="17"/>
      <point x="275" y="11" type="curve" smooth="yes"/>
      <point x="275" y="4"/>
      <point x="280" y="0"/>
      <point x="289" y="0" type="curve" smooth="yes"/>
      <point x="460" y="0" type="line" smooth="yes"/>
      <point x="469" y="0"/>
      <point x="475" y="3"/>
      <point x="475" y="10" type="curve" smooth="yes"/>
      <point x="475" y="17"/>
      <point x="470" y="21"/>
      <point x="461" y="23" type="curve" smooth="yes"/>
      <point x="446" y="26" type="line" smooth="yes"/>
      <point x="420" y="31"/>
      <point x="411" y="43"/>
      <point x="402" y="80" type="curve" smooth="yes"/>
      <point x="244" y="714" type="line" smooth="yes"/>
      <point x="241" y="727"/>
      <point x="234" y="730"/>
      <point x="228" y="730" type="curve" smooth="yes"/>
      <point x="223" y="730"/>
      <point x="216" y="727"/>
      <point x="213" y="714" type="curve" smooth="yes"/>
      <point x="58" y="89" type="line" smooth="yes"/>
      <point x="49" y="52"/>
      <point x="37" y="31"/>
      <point x="11" y="26" type="curve" smooth="yes"/>
      <point x="-4" y="23" type="line" smooth="yes"/>
      <point x="-13" y="21"/>
      <point x="-18" y="17"/>
      <point x="-18" y="10" type="curve" smooth="yes"/>
      <point x="-18" y="3"/>
      <point x="-12" y="0"/>
    </contour>
    <contour>
      <point x="153" y="278" type="line" smooth="yes"/>
      <point x="143" y="278"/>
      <point x="138" y="285"/>
      <point x="140" y="295" type="curve" smooth="yes"/>
      <point x="207" y="563" type="line"/>
      <point x="212" y="563" type="line"/>
      <point x="276" y="295" type="line" smooth="yes"/>
      <point x="278" y="285"/>
      <point x="273" y="278"/>
      <point x="263" y="278" type="curve" smooth="yes"/>
    </contour>
  </outline>
</glyph>
<glyph name="J" format="2">
  <advance width="249"/>
  <unicode hex="004A"/>
  <outline>
    <contour>
      <point x="14" y="-215" type="curve" smooth="yes"/>
      <point x="104" y="-215"/>
      <point x="160" y="-116"/>
      <point x="160" y="44" type="curve" smooth="yes"/>
      <point x="160" y="654" type="line" smooth="yes"/>
      <point x="160" y="682"/>
      <point x="166" y="688"/>
      <point x="194" y="693" type="curve" smooth="yes"/>
      <point x="217" y="697" type="line" smooth="yes"/>
      <point x="226" y="699"/>
      <point x="230" y="702"/>
      <point x="230" y="709" type="curve" smooth="yes"/>
      <point x="230" y="716"/>
      <point x="225" y="720"/>
      <point x="215" y="720" type="curve" smooth="yes"/>
      <point x="34" y="720" type="line" smooth="yes"/>
      <point x="24" y="720"/>
      <point x="19" y="716"/>
      <point x="19" y="709" type="curve" smooth="yes"/>
      <point x="19" y="702"/>
      <point x="23" y="699"/>
      <point x="32" y="697" type="curve" smooth="yes"/>
      <point x="55" y="693" type="line" smooth="yes"/>
      <point x="83" y="688"/>
      <point x="89" y="682"/>
      <point x="89" y="654" type="curve" smooth="yes"/>
      <point x="89" y="-91" type="line" smooth="yes"/>
      <point x="89" y="-144"/>
      <point x="75" y="-175"/>
      <point x="50" y="-175" type="curve" smooth="yes"/>
      <point x="14" y="-175"/>
      <point x="29" y="-109"/>
      <point x="-15" y="-109" type="curve" smooth="yes"/>
      <point x="-39" y="-109"/>
      <point x="-56" y="-128"/>
      <point x="-56" y="-155" type="curve" smooth="yes"/>
      <point x="-56" y="-191"/>
      <point x="-28" y="-215"/>
    </contour>
  </outline>
</glyph>
<glyph name="Z" format="2">
  <advance width="427"/>
  <unicode hex="005A"/>
  <anchor x="214" y="0" name="bottom"/>
  <anchor x="214" y="360" name="center"/>
  <anchor x="234" y="720" name="top"/>
  <outline>
    <contour>
      <point x="40" y="0" type="curve" smooth="yes"/>
      <point x="364" y="0" type="line" smooth="yes"/>
      <point x="379" y="0"/>
      <point x="388" y="8"/>
      <point x="389" y="23" type="curve" smooth="yes"/>
      <point x="401" y="211" type="line" smooth="yes"/>
      <point x="402" y="222"/>
      <point x="396" y="228"/>
      <point x="389" y="228" type="curve" smooth="yes"/>
      <point x="381" y="228"/>
      <point x="376" y="223"/>
      <point x="374" y="215" type="curve" smooth="yes"/>
      <point x="361" y="148" type="line" smooth="yes"/>
      <point x="341" y="45"/>
      <point x="283" y="30"/>
      <point x="227" y="30" type="curve" smooth="yes"/>
      <point x="116" y="30" type="line" smooth="yes"/>
      <point x="106" y="30"/>
      <point x="101" y="36"/>
      <point x="105" y="46" type="curve" smooth="yes"/>
      <point x="394" y="691" type="line" smooth="yes"/>
      <point x="402" y="709"/>
      <point x="394" y="720"/>
      <point x="375" y="720" type="curve" smooth="yes"/>
      <point x="154" y="720" type="line" smooth="yes"/>
      <point x="90" y="720"/>
      <point x="87" y="740"/>
      <point x="74" y="740" type="curve" smooth="yes"/>
      <point x="64" y="740"/>
      <point x="58" y="732"/>
      <point x="57" y="717" type="curve" smooth="yes"/>
      <point x="39" y="531" type="line" smooth="yes"/>
      <point x="38" y="520"/>
      <point x="44" y="514"/>
      <point x="52" y="514" type="curve" smooth="yes"/>
      <point x="60" y="514"/>
      <point x="64" y="519"/>
      <point x="66" y="527" type="curve" smooth="yes"/>
      <point x="81" y="577" type="line" smooth="yes"/>
      <point x="107" y="665"/>
      <point x="149" y="690"/>
      <point x="199" y="690" type="curve" smooth="yes"/>
      <point x="299" y="690" type="line" smooth="yes"/>
      <point x="309" y="690"/>
      <point x="314" y="684"/>
      <point x="310" y="674" type="curve" smooth="yes"/>
      <point x="21" y="29" type="line" smooth="yes"/>
      <point x="13" y="11"/>
      <point x="21" y="0"/>
    </contour>
  </outline>
</glyph>
<glyph name="o" format="2">
  <advance width="408"/>
  <unicode hex="006F"/>
  <anchor x="204" y="0" name="bottom"/>
  <anchor x="204" y="255" name="center"/>
  <anchor x="367" y="10" name="ogonek"/>
  <anchor x="204" y="510" name="top"/>
  <anchor x="388" y="510" name="topright"/>
  <outline>
    <contour>
      <point x="203" y="-9" type="curve" smooth="yes"/>
      <point x="305" y="-9"/>
      <point x="383" y="105"/>
      <point x="383" y="254" type="curve" smooth="yes"/>
      <point x="383" y="401"/>
      <point x="304" y="516"/>
      <point x="203" y="516" type="curve" smooth="yes"/>
      <point x="102" y="516"/>
      <point x="23" y="401"/>
      <point x="23" y="254" type="curve" smooth="yes"/>
      <point x="23" y="105"/>
      <point x="101" y="-9"/>
    </contour>
    <contour>
      <point x="203" y="16" type="curve" smooth="yes"/>
      <point x="132" y="16"/>
      <point x="99" y="95"/>
      <point x="99" y="254" type="curve" smooth="yes"/>
      <point x="99" y="411"/>
      <point x="133" y="491"/>
      <point x="203" y="491" type="curve" smooth="yes"/>
      <point x="273" y="491"/>
      <point x="307" y="411"/>
      <point x="307" y="254" type="curve" smooth="yes"/>
      <point x="307" y="95"/>
      <point x="274" y="16"/>
    </contour>
  </outline>
</glyph>
<glyph name="p" format="2">
  <advance width="444"/>
  <unicode hex="0070"/>
  <outline>
    <contour>
      <point x="27" y="-205" type="curve" smooth="yes"/>
      <point x="208" y="-205" type="line" smooth="yes"/>
      <point x="218" y="-205"/>
      <point x="223" y="-201"/>
      <point x="223" y="-193" type="curve" smooth="yes"/>
      <point x="223" y="-187"/>
      <point x="219" y="-183"/>
      <point x="212" y="-182" type="curve" smooth="yes"/>
      <point x="175" y="-177" type="line" smooth="yes"/>
      <point x="147" y="-173"/>
      <point x="141" y="-166"/>
      <point x="141" y="-138" type="curve" smooth="yes"/>
      <point x="141" y="-9" type="line" smooth="yes"/>
      <point x="141" y="2"/>
      <point x="148" y="7"/>
      <point x="159" y="2" type="curve" smooth="yes"/>
      <point x="176" y="-6"/>
      <point x="193" y="-9"/>
      <point x="212" y="-9" type="curve" smooth="yes"/>
      <point x="329" y="-9"/>
      <point x="414" y="107"/>
      <point x="414" y="274" type="curve" smooth="yes"/>
      <point x="414" y="419"/>
      <point x="348" y="516"/>
      <point x="256" y="516" type="curve" smooth="yes"/>
      <point x="220" y="516"/>
      <point x="193" y="503"/>
      <point x="167" y="477" type="curve" smooth="yes"/>
      <point x="156" y="466" type="line" smooth="yes"/>
      <point x="145" y="455"/>
      <point x="136" y="460"/>
      <point x="136" y="470" type="curve" smooth="yes"/>
      <point x="136" y="501" type="line" smooth="yes"/>
      <point x="136" y="509"/>
      <point x="133" y="513"/>
      <point x="127" y="513" type="curve" smooth="yes"/>
      <point x="122" y="513"/>
      <point x="118" y="510"/>
      <point x="112" y="504" type="curve" smooth="yes"/>
      <point x="88" y="482"/>
      <point x="71" y="467"/>
      <point x="30" y="461" type="curve" smooth="yes"/>
      <point x="19" y="459"/>
      <point x="14" y="456"/>
      <point x="14" y="450" type="curve" smooth="yes"/>
      <point x="14" y="444"/>
      <point x="17" y="440"/>
      <point x="27" y="439" type="curve" smooth="yes"/>
      <point x="48" y="436" type="line" smooth="yes"/>
      <point x="67" y="433"/>
      <point x="73" y="427"/>
      <point x="73" y="403" type="curve" smooth="yes"/>
      <point x="73" y="-138" type="line" smooth="yes"/>
      <point x="73" y="-166"/>
      <point x="67" y="-176"/>
      <point x="39" y="-180" type="curve" smooth="yes"/>
      <point x="25" y="-182" type="line" smooth="yes"/>
      <point x="16" y="-183"/>
      <point x="12" y="-188"/>
      <point x="12" y="-194" type="curve" smooth="yes"/>
      <point x="12" y="-201"/>
      <point x="17" y="-205"/>
    </contour>
    <contour>
      <point x="215" y="16" type="curve" smooth="yes"/>
      <point x="171" y="16"/>
      <point x="141" y="53"/>
      <point x="141" y="113" type="curve" smooth="yes"/>
      <point x="141" y="365" type="line" smooth="yes"/>
      <point x="141" y="432"/>
      <point x="179" y="471"/>
      <point x="225" y="471" type="curve" smooth="yes"/>
      <point x="298" y="471"/>
      <point x="340" y="397"/>
      <point x="340" y="260" type="curve" smooth="yes"/>
      <point x="340" y="110"/>
      <point x="290" y="16"/>
    </contour>
  </outline>
</glyph>
<glyph name="t" format="2">
  <advance width="259"/>
  <unicode hex="0074"/>
  <guideline x="245" y="486" angle="90"/>
  <guideline x="-79" y="649" angle="0"/>
  <anchor x="150" y="0" name="bottom"/>
  <anchor x="130" y="255" name="center"/>
  <anchor x="130" y="510" name="top"/>
  <anchor x="195" y="760" name="topright"/>
  <outline>
    <contour>
      <point x="147" y="-9" type="curve" smooth="yes"/>
      <point x="197" y="-9"/>
      <point x="241" y="33"/>
      <point x="245" y="136" type="curve" smooth="yes"/>
      <point x="245" y="146"/>
      <point x="240" y="151"/>
      <point x="233" y="151" type="curve" smooth="yes"/>
      <point x="226" y="151"/>
      <point x="221" y="146"/>
      <point x="220" y="137" type="curve" smooth="yes"/>
      <point x="215" y="74"/>
      <point x="196" y="48"/>
      <point x="168" y="48" type="curve" smooth="yes"/>
      <point x="143" y="48"/>
      <point x="135" y="66"/>
      <point x="135" y="95" type="curve" smooth="yes"/>
      <point x="135" y="468" type="line" smooth="yes"/>
      <point x="135" y="477"/>
      <point x="140" y="482"/>
      <point x="149" y="482" type="curve" smooth="yes"/>
      <point x="214" y="482" type="line" smooth="yes"/>
      <point x="223" y="482"/>
      <point x="230" y="487"/>
      <point x="230" y="496" type="curve" smooth="yes"/>
      <point x="230" y="505"/>
      <point x="223" y="510"/>
      <point x="214" y="510" type="curve" smooth="yes"/>
      <point x="149" y="510" type="line" smooth="yes"/>
      <point x="140" y="510"/>
      <point x="135" y="515"/>
      <point x="135" y="524" type="curve" smooth="yes"/>
      <point x="135" y="635" type="line" smooth="yes"/>
      <point x="135" y="646"/>
      <point x="132" y="651"/>
      <point x="124" y="651" type="curve" smooth="yes"/>
      <point x="117" y="651"/>
      <point x="112" y="646"/>
      <point x="107" y="630" type="curve" smooth="yes"/>
      <point x="87" y="569"/>
      <point x="63" y="538"/>
      <point x="19" y="508" type="curve" smooth="yes"/>
      <point x="13" y="504"/>
      <point x="10" y="500"/>
      <point x="10" y="494" type="curve" smooth="yes"/>
      <point x="10" y="486"/>
      <point x="16" y="482"/>
      <point x="26" y="482" type="curve" smooth="yes"/>
      <point x="55" y="482" type="line" smooth="yes"/>
      <point x="62" y="482"/>
      <point x="67" y="477"/>
      <point x="67" y="470" type="curve" smooth="yes"/>
      <point x="67" y="96" type="line" smooth="yes"/>
      <point x="67" y="21"/>
      <point x="100" y="-9"/>
    </contour>
  </outline>
</glyph>
<glyph name="w" format="2">
  <advance width="597"/>
  <unicode hex="0077"/>
  <anchor x="299" y="0" name="bottom"/>
  <anchor x="311" y="510" name="top"/>
  <outline>
    <contour>
      <point x="187" y="-9" type="curve" smooth="yes"/>
      <point x="195" y="-9"/>
      <point x="201" y="-4"/>
      <point x="205" y="11" type="curve" smooth="yes"/>
      <point x="291" y="331" type="line" smooth="yes"/>
      <point x="295" y="347"/>
      <point x="306" y="346"/>
      <point x="310" y="331" type="curve" smooth="yes"/>
      <point x="388" y="11" type="line" smooth="yes"/>
      <point x="392" y="-4"/>
      <point x="398" y="-9"/>
      <point x="405" y="-9" type="curve" smooth="yes"/>
      <point x="414" y="-9"/>
      <point x="420" y="-4"/>
      <point x="424" y="11" type="curve" smooth="yes"/>
      <point x="538" y="419" type="line" smooth="yes"/>
      <point x="550" y="461"/>
      <point x="564" y="475"/>
      <point x="584" y="482" type="curve" smooth="yes"/>
      <point x="593" y="485" type="line" smooth="yes"/>
      <point x="602" y="488"/>
      <point x="605" y="493"/>
      <point x="605" y="499" type="curve" smooth="yes"/>
      <point x="605" y="505"/>
      <point x="601" y="510"/>
      <point x="591" y="510" type="curve" smooth="yes"/>
      <point x="466" y="510" type="line" smooth="yes"/>
      <point x="457" y="510"/>
      <point x="452" y="506"/>
      <point x="452" y="500" type="curve" smooth="yes"/>
      <point x="452" y="493"/>
      <point x="457" y="489"/>
      <point x="465" y="487" type="curve" smooth="yes"/>
      <point x="486" y="483" type="line" smooth="yes"/>
      <point x="519" y="477"/>
      <point x="520" y="461"/>
      <point x="510" y="425" type="curve" smooth="yes"/>
      <point x="434" y="154" type="line" smooth="yes"/>
      <point x="430" y="140"/>
      <point x="419" y="141"/>
      <point x="416" y="154" type="curve" smooth="yes"/>
      <point x="352" y="443" type="line" smooth="yes"/>
      <point x="346" y="472"/>
      <point x="350" y="481"/>
      <point x="382" y="485" type="curve" smooth="yes"/>
      <point x="398" y="487" type="line" smooth="yes"/>
      <point x="406" y="488"/>
      <point x="411" y="493"/>
      <point x="411" y="500" type="curve" smooth="yes"/>
      <point x="411" y="506"/>
      <point x="406" y="510"/>
      <point x="397" y="510" type="curve" smooth="yes"/>
      <point x="235" y="510" type="line" smooth="yes"/>
      <point x="226" y="510"/>
      <point x="221" y="506"/>
      <point x="221" y="500" type="curve" smooth="yes"/>
      <point x="221" y="493"/>
      <point x="225" y="489"/>
      <point x="234" y="487" type="curve" smooth="yes"/>
      <point x="249" y="484" type="line" smooth="yes"/>
      <point x="268" y="480"/>
      <point x="273" y="476"/>
      <point x="283" y="444" type="curve" smooth="yes"/>
      <point x="287" y="432"/>
      <point x="286" y="422"/>
      <point x="283" y="411" type="curve" smooth="yes"/>
      <point x="215" y="152" type="line" smooth="yes"/>
      <point x="211" y="138"/>
      <point x="200" y="138"/>
      <point x="196" y="152" type="curve" smooth="yes"/>
      <point x="117" y="443" type="line" smooth="yes"/>
      <point x="109" y="472"/>
      <point x="115" y="481"/>
      <point x="147" y="485" type="curve" smooth="yes"/>
      <point x="163" y="487" type="line" smooth="yes"/>
      <point x="171" y="488"/>
      <point x="176" y="493"/>
      <point x="176" y="500" type="curve" smooth="yes"/>
      <point x="176" y="506"/>
      <point x="171" y="510"/>
      <point x="162" y="510" type="curve" smooth="yes"/>
      <point x="0" y="510" type="line" smooth="yes"/>
      <point x="-9" y="510"/>
      <point x="-14" y="506"/>
      <point x="-14" y="500" type="curve" smooth="yes"/>
      <point x="-14" y="493"/>
      <point x="-10" y="489"/>
      <point x="-1" y="487" type="curve" smooth="yes"/>
      <point x="14" y="484" type="line" smooth="yes"/>
      <point x="32" y="480"/>
      <point x="39" y="475"/>
      <point x="48" y="443" type="curve" smooth="yes"/>
      <point x="169" y="11" type="line" smooth="yes"/>
      <point x="173" y="-4"/>
      <point x="179" y="-9"/>
    </contour>
  </outline>
</glyph>
<glyph name="braceleft" format="2">
  <advance width="318"/>
  <unicode hex="007B"/>
  <outline>
    <contour>
      <point x="246" y="-96" type="curve" smooth="yes"/>
      <point x="253" y="-96"/>
      <point x="258" y="-91"/>
      <point x="258" y="-84" type="curve" smooth="yes"/>
      <point x="258" y="-77"/>
      <point x="253" y="-72"/>
      <point x="246" y="-72" type="curve" smooth="yes"/>
      <point x="199" y="-72"/>
      <point x="178" y="-38"/>
      <point x="178" y="36" type="curve" smooth="yes"/>
      <point x="178" y="178" type="line" smooth="yes"/>
      <point x="178" y="267"/>
      <point x="156" y="302"/>
      <point x="104" y="322" type="curve"/>
      <point x="156" y="342"/>
      <point x="178" y="377"/>
      <point x="178" y="466" type="curve" smooth="yes"/>
      <point x="178" y="608" type="line" smooth="yes"/>
      <point x="178" y="682"/>
      <point x="199" y="716"/>
      <point x="246" y="716" type="curve" smooth="yes"/>
      <point x="253" y="716"/>
      <point x="258" y="721"/>
      <point x="258" y="728" type="curve" smooth="yes"/>
      <point x="258" y="735"/>
      <point x="253" y="740"/>
      <point x="246" y="740" type="curve" smooth="yes"/>
      <point x="164" y="740"/>
      <point x="120" y="696"/>
      <point x="120" y="604" type="curve" smooth="yes"/>
      <point x="120" y="462" type="line" smooth="yes"/>
      <point x="120" y="368"/>
      <point x="99" y="334"/>
      <point x="52" y="334" type="curve" smooth="yes"/>
      <point x="45" y="334"/>
      <point x="40" y="329"/>
      <point x="40" y="322" type="curve" smooth="yes"/>
      <point x="40" y="315"/>
      <point x="45" y="310"/>
      <point x="52" y="310" type="curve" smooth="yes"/>
      <point x="99" y="310"/>
      <point x="120" y="276"/>
      <point x="120" y="182" type="curve" smooth="yes"/>
      <point x="120" y="40" type="line" smooth="yes"/>
      <point x="120" y="-52"/>
      <point x="164" y="-96"/>
    </contour>
  </outline>
</glyph>
<glyph name="Oslash" format="2">
  <advance width="540"/>
  <unicode hex="00D8"/>
  <anchor x="270" y="0" name="bottom"/>
  <anchor x="270" y="360" name="center"/>
  <anchor x="486" y="10" name="ogonek"/>
  <anchor x="270" y="720" name="top"/>
  <anchor x="20" y="720" name="topleft"/>
  <anchor x="520" y="720" name="topright"/>
  <outline>
    <contour>
      <point x="86" y="-60" type="curve" smooth="yes"/>
      <point x="97" y="-60" type="line" smooth="yes"/>
      <point x="102" y="-60"/>
      <point x="106" y="-58"/>
      <point x="108" y="-52" type="curve" smooth="yes"/>
      <point x="463" y="778" type="line" smooth="yes"/>
      <point x="466" y="785"/>
      <point x="462" y="790"/>
      <point x="455" y="790" type="curve" smooth="yes"/>
      <point x="444" y="790" type="line" smooth="yes"/>
      <point x="439" y="790"/>
      <point x="435" y="788"/>
      <point x="433" y="782" type="curve" smooth="yes"/>
      <point x="78" y="-48" type="line" smooth="yes"/>
      <point x="75" y="-55"/>
      <point x="79" y="-60"/>
    </contour>
    <component base="O"/>
  </outline>
</glyph>
<glyph name="Thorn" format="2">
  <advance width="466"/>
  <unicode hex="00DE"/>
  <outline>
    <contour>
      <point x="34" y="0" type="curve" smooth="yes"/>
      <point x="237" y="0" type="line" smooth="yes"/>
      <point x="247" y="0"/>
      <point x="252" y="4"/>
      <point x="252" y="11" type="curve" smooth="yes"/>
      <point x="252" y="17"/>
      <point x="248" y="21"/>
      <point x="239" y="23" type="curve" smooth="yes"/>
      <point x="194" y="31" type="line" smooth="yes"/>
      <point x="166" y="36"/>
      <point x="160" y="43"/>
      <point x="160" y="71" type="curve" smooth="yes"/>
      <point x="160" y="171" type="line" smooth="yes"/>
      <point x="160" y="180"/>
      <point x="165" y="185"/>
      <point x="174" y="185" type="curve" smooth="yes"/>
      <point x="246" y="185" type="line" smooth="yes"/>
      <point x="361" y="185"/>
      <point x="442" y="265"/>
      <point x="442" y="379" type="curve" smooth="yes"/>
      <point x="442" y="497"/>
      <point x="361" y="579"/>
      <point x="243" y="579" type="curve" smooth="yes"/>
      <point x="174" y="579" type="line" smooth="yes"/>
      <point x="165" y="579"/>
      <point x="160" y="584"/>
      <point x="160" y="593" type="curve" smooth="yes"/>
      <point x="160" y="649" type="line" smooth="yes"/>
      <point x="160" y="677"/>
      <point x="166" y="684"/>
      <point x="194" y="689" type="curve" smooth="yes"/>
      <point x="239" y="697" type="line" smooth="yes"/>
      <point x="248" y="699"/>
      <point x="252" y="703"/>
      <point x="252" y="709" type="curve" smooth="yes"/>
      <point x="252" y="716"/>
      <point x="247" y="720"/>
      <point x="237" y="720" type="curve" smooth="yes"/>
      <point x="34" y="720" type="line" smooth="yes"/>
      <point x="24" y="720"/>
      <point x="19" y="716"/>
      <point x="19" y="709" type="curve" smooth="yes"/>
      <point x="19" y="703"/>
      <point x="23" y="699"/>
      <point x="32" y="697" type="curve" smooth="yes"/>
      <point x="55" y="693" type="line" smooth="yes"/>
      <point x="83" y="688"/>
      <point x="89" y="682"/>
      <point x="89" y="654" type="curve" smooth="yes"/>
      <point x="89" y="66" type="line" smooth="yes"/>
      <point x="89" y="38"/>
      <point x="83" y="32"/>
      <point x="55" y="27" type="curve" smooth="yes"/>
      <point x="32" y="23" type="line" smooth="yes"/>
      <point x="23" y="21"/>
      <point x="19" y="17"/>
      <point x="19" y="11" type="curve" smooth="yes"/>
      <point x="19" y="4"/>
      <point x="24" y="0"/>
    </contour>
    <contour>
      <point x="227" y="210" type="curve" smooth="yes"/>
      <point x="181" y="210"/>
      <point x="160" y="227"/>
      <point x="160" y="265" type="curve" smooth="yes"/>
      <point x="160" y="514" type="line" smooth="yes"/>
      <point x="160" y="542"/>
      <point x="179" y="554"/>
      <point x="221" y="554" type="curve" smooth="yes"/>
      <point x="314" y="554"/>
      <point x="367" y="491"/>
      <point x="367" y="382" type="curve" smooth="yes"/>
      <point x="367" y="275"/>
      <point x="314" y="210"/>
    </contour>
  </outline>
</glyph>
<glyph name="Hbar" format="2">
  <advance width="546"/>
  <unicode hex="0126"/>
  <outline>
    <contour>
      <point x="29" y="532" type="curve" smooth="yes"/>
      <point x="517" y="532" type="line" smooth="yes"/>
      <point x="523" y="532"/>
      <point x="527" y="536"/>
      <point x="527" y="542" type="curve" smooth="yes"/>
      <point x="527" y="550" type="line" smooth="yes"/>
      <point x="527" y="556"/>
      <point x="523" y="560"/>
      <point x="517" y="560" type="curve" smooth="yes"/>
      <point x="29" y="560" type="line" smooth="yes"/>
      <point x="23" y="560"/>
      <point x="19" y="556"/>
      <point x="19" y="550" type="curve" smooth="yes"/>
      <point x="19" y="542" type="line" smooth="yes"/>
      <point x="19" y="536"/>
      <point x="23" y="532"/>
    </contour>
    <component base="H"/>
  </outline>
</glyph>
<glyph name="hbar" format="2">
  <advance width="470"/>
  <unicode hex="0127"/>
  <outline>
    <contour>
      <point x="18" y="578" type="curve" smooth="yes"/>
      <point x="293" y="578" type="line" smooth="yes"/>
      <point x="299" y="578"/>
      <point x="303" y="582"/>
      <point x="303" y="588" type="curve" smooth="yes"/>
      <point x="303" y="596" type="line" smooth="yes"/>
      <point x="303" y="602"/>
      <point x="299" y="606"/>
      <point x="293" y="606" type="curve" smooth="yes"/>
      <point x="18" y="606" type="line" smooth="yes"/>
      <point x="12" y="606"/>
      <point x="8" y="602"/>
      <point x="8" y="596" type="curve" smooth="yes"/>
      <point x="8" y="588" type="line" smooth="yes"/>
      <point x="8" y="582"/>
      <point x="12" y="578"/>
    </contour>
    <component base="h"/>
  </outline>
</glyph>
<glyph name="Lslash" format="2">
  <advance width="413"/>
  <unicode hex="0141"/>
  <anchor x="207" y="0" name="bottom"/>
  <anchor x="207" y="360" name="center"/>
  <anchor x="125" y="720" name="top"/>
  <anchor x="275" y="720" name="topright"/>
  <outline>
    <contour>
      <point x="137" y="350" type="line"/>
      <point x="137" y="383" type="line"/>
      <point x="15" y="307" type="line" smooth="yes"/>
      <point x="10" y="304"/>
      <point x="9" y="298"/>
      <point x="12" y="293" type="curve" smooth="yes"/>
      <point x="17" y="286" type="line" smooth="yes"/>
      <point x="20" y="281"/>
      <point x="25" y="280"/>
      <point x="30" y="283" type="curve" smooth="yes"/>
    </contour>
    <contour>
      <point x="137" y="386" type="line"/>
      <point x="137" y="353" type="line"/>
      <point x="264" y="432" type="line" smooth="yes"/>
      <point x="269" y="435"/>
      <point x="270" y="441"/>
      <point x="267" y="446" type="curve" smooth="yes"/>
      <point x="262" y="453" type="line" smooth="yes"/>
      <point x="259" y="458"/>
      <point x="254" y="459"/>
      <point x="249" y="456" type="curve" smooth="yes"/>
    </contour>
    <component base="L"/>
  </outline>
</glyph>
<glyph name="Eng" format="2">
  <advance width="540"/>
  <unicode hex="014A"/>
  <outline>
    <contour>
      <point x="309" y="-215" type="curve" smooth="yes"/>
      <point x="396" y="-215"/>
      <point x="452" y="-116"/>
      <point x="452" y="44" type="curve" smooth="yes"/>
      <point x="452" y="634" type="line" smooth="yes"/>
      <point x="452" y="676"/>
      <point x="463" y="690"/>
      <point x="498" y="695" type="curve" smooth="yes"/>
      <point x="511" y="697" type="line" smooth="yes"/>
      <point x="520" y="698"/>
      <point x="524" y="703"/>
      <point x="524" y="709" type="curve" smooth="yes"/>
      <point x="524" y="716"/>
      <point x="519" y="720"/>
      <point x="509" y="720" type="curve" smooth="yes"/>
      <point x="366" y="720" type="line" smooth="yes"/>
      <point x="356" y="720"/>
      <point x="351" y="716"/>
      <point x="351" y="709" type="curve" smooth="yes"/>
      <point x="351" y="703"/>
      <point x="355" y="699"/>
      <point x="364" y="697" type="curve" smooth="yes"/>
      <point x="382" y="694" type="line" smooth="yes"/>
      <point x="405" y="690"/>
      <point x="421" y="676"/>
      <point x="421" y="634" type="curve" smooth="yes"/>
      <point x="421" y="181" type="line" smooth="yes"/>
      <point x="421" y="173"/>
      <point x="413" y="171"/>
      <point x="409" y="179" type="curve" smooth="yes"/>
      <point x="163" y="698" type="line" smooth="yes"/>
      <point x="155" y="714"/>
      <point x="145" y="720"/>
      <point x="128" y="720" type="curve" smooth="yes"/>
      <point x="31" y="720" type="line" smooth="yes"/>
      <point x="21" y="720"/>
      <point x="16" y="716"/>
      <point x="16" y="709" type="curve" smooth="yes"/>
      <point x="16" y="703"/>
      <point x="20" y="699"/>
      <point x="29" y="697" type="curve" smooth="yes"/>
      <point x="52" y="693" type="line" smooth="yes"/>
      <point x="82" y="688"/>
      <point x="88" y="682"/>
      <point x="88" y="654" type="curve" smooth="yes"/>
      <point x="88" y="86" type="line" smooth="yes"/>
      <point x="88" y="48"/>
      <point x="77" y="30"/>
      <point x="42" y="25" type="curve" smooth="yes"/>
      <point x="29" y="23" type="line" smooth="yes"/>
      <point x="20" y="22"/>
      <point x="16" y="17"/>
      <point x="16" y="11" type="curve" smooth="yes"/>
      <point x="16" y="4"/>
      <point x="21" y="0"/>
      <point x="31" y="0" type="curve" smooth="yes"/>
      <point x="174" y="0" type="line" smooth="yes"/>
      <point x="184" y="0"/>
      <point x="189" y="4"/>
      <point x="189" y="11" type="curve" smooth="yes"/>
      <point x="189" y="17"/>
      <point x="185" y="22"/>
      <point x="176" y="23" type="curve" smooth="yes"/>
      <point x="163" y="25" type="line" smooth="yes"/>
      <point x="130" y="30"/>
      <point x="119" y="48"/>
      <point x="119" y="86" type="curve" smooth="yes"/>
      <point x="119" y="600" type="line" smooth="yes"/>
      <point x="119" y="610"/>
      <point x="127" y="612"/>
      <point x="131" y="603" type="curve" smooth="yes"/>
      <point x="377" y="82" type="line" smooth="yes"/>
      <point x="382" y="71"/>
      <point x="384" y="63"/>
      <point x="384" y="52" type="curve" smooth="yes"/>
      <point x="384" y="-91" type="line" smooth="yes"/>
      <point x="384" y="-144"/>
      <point x="370" y="-175"/>
      <point x="345" y="-175" type="curve" smooth="yes"/>
      <point x="309" y="-175"/>
      <point x="323" y="-119"/>
      <point x="281" y="-119" type="curve" smooth="yes"/>
      <point x="257" y="-119"/>
      <point x="242" y="-138"/>
      <point x="242" y="-161" type="curve" smooth="yes"/>
      <point x="242" y="-193"/>
      <point x="270" y="-215"/>
    </contour>
  </outline>
</glyph>
<glyph name="dotaccentcomb" format="2">
  <unicode hex="0307"/>
  <anchor x="110" y="510" name="_top"/>
  <anchor x="110" y="710" name="top"/>
  <outline>
    <contour>
      <point x="110" y="605" type="curve" smooth="yes"/>
      <point x="138" y="605"/>
      <point x="159" y="627"/>
      <point x="159" y="658" type="curve" smooth="yes"/>
      <point x="159" y="689"/>
      <point x="138" y="710"/>
      <point x="110" y="710" type="curve" smooth="yes"/>
      <point x="82" y="710"/>
      <point x="60" y="689"/>
      <point x="60" y="658" type="curve" smooth="yes"/>
      <point x="60" y="627"/>
      <point x="82" y="605"/>
    </contour>
  </outline>
</glyph>
<glyph name="commaaccentcomb" format="2">
  <unicode hex="0326"/>
  <anchor x="114" y="0" name="_bottom"/>
  <anchor x="114" y="-305" name="bottom"/>
  <outline>
    <contour>
      <point x="115" y="-67" type="curve" smooth="yes"/>
      <point x="87" y="-67"/>
      <point x="67" y="-87"/>
      <point x="67" y="-114" type="curve" smooth="yes"/>
      <point x="67" y="-161"/>
      <point x="117" y="-155"/>
      <point x="117" y="-198" type="curve" smooth="yes"/>
      <point x="117" y="-224"/>
      <point x="105" y="-245"/>
      <point x="66" y="-284" type="curve" smooth="yes"/>
      <point x="58" y="-292"/>
      <point x="58" y="-299"/>
      <point x="63" y="-303" type="curve" smooth="yes"/>
      <point x="68" y="-307"/>
      <point x="76" y="-305"/>
      <point x="83" y="-299" type="curve" smooth="yes"/>
      <point x="143" y="-249"/>
      <point x="169" y="-204"/>
      <point x="169" y="-139" type="curve" smooth="yes"/>
      <point x="169" y="-98"/>
      <point x="148" y="-67"/>
    </contour>
  </outline>
</glyph>
<glyph name="cedillacomb" format="2">
  <unicode hex="0327"/>
  <anchor x="154" y="0" name="_bottom"/>
  <anchor x="151" y="-215" name="bottom"/>
  <outline>
    <contour>
      <point x="170" y="12" type="line"/>
      <point x="147" y="12" type="line"/>
      <point x="132" y="-71" type="line" smooth="yes"/>
      <point x="131" y="-79"/>
      <point x="134" y="-83"/>
      <point x="140" y="-84" type="curve" smooth="yes"/>
      <point x="176" y="-88"/>
      <point x="195" y="-109"/>
      <point x="195" y="-138" type="curve" smooth="yes"/>
      <point x="195" y="-170"/>
      <point x="181" y="-195"/>
      <point x="149" y="-195" type="curve" smooth="yes"/>
      <point x="98" y="-195"/>
      <point x="122" y="-131"/>
      <point x="83" y="-131" type="curve" smooth="yes"/>
      <point x="68" y="-131"/>
      <point x="60" y="-142"/>
      <point x="60" y="-156" type="curve" smooth="yes"/>
      <point x="60" y="-187"/>
      <point x="95" y="-215"/>
      <point x="147" y="-215" type="curve" smooth="yes"/>
      <point x="198" y="-215"/>
      <point x="241" y="-185"/>
      <point x="241" y="-133" type="curve" smooth="yes"/>
      <point x="241" y="-94"/>
      <point x="217" y="-58"/>
      <point x="164" y="-49" type="curve" smooth="yes"/>
      <point x="161" y="-49"/>
      <point x="159" y="-47"/>
      <point x="160" y="-43" type="curve" smooth="yes"/>
    </contour>
  </outline>
</glyph>
